<svg width="27" height="27" viewBox="0 0 27 27" fill="none" xmlns="http://www.w3.org/2000/svg">
<path d="M23.0664 19.8169V13.3169C23.0664 7.93212 18.7012 3.56689 13.3164 3.56689C7.93163 3.56689 3.56641 7.93212 3.56641 13.3169V19.8169M6.27474 23.0669C4.77897 23.0669 3.56641 21.8543 3.56641 20.3586V18.1919C3.56641 16.6961 4.77897 15.4836 6.27474 15.4836C7.77051 15.4836 8.98307 16.6961 8.98307 18.1919V20.3586C8.98307 21.8543 7.77051 23.0669 6.27474 23.0669ZM20.3581 23.0669C18.8623 23.0669 17.6497 21.8543 17.6497 20.3586V18.1919C17.6497 16.6961 18.8623 15.4836 20.3581 15.4836C21.8538 15.4836 23.0664 16.6961 23.0664 18.1919V20.3586C23.0664 21.8543 21.8538 23.0669 20.3581 23.0669Z" stroke="#495057" stroke-width="1.8" stroke-linecap="round" stroke-linejoin="round"/>
</svg>
