<svg width="46" height="47" viewBox="0 0 46 47" fill="none" xmlns="http://www.w3.org/2000/svg">
<rect y="0.47998" width="46" height="46" rx="8" fill="#FFF3C7"/>
<path d="M23.0005 20.0113V18.855" stroke="#CC9F00" stroke-width="1.88" stroke-linecap="round" stroke-linejoin="round"/>
<path d="M23.0005 26.9487V28.1049" stroke="#CC9F00" stroke-width="1.88" stroke-linecap="round" stroke-linejoin="round"/>
<path d="M20.996 26.1228C21.296 26.6131 21.8074 26.9527 22.4245 26.9527H23.0032H23.6917C24.5889 26.9527 25.3144 26.2259 25.3144 25.33C25.3144 24.5847 24.807 23.9359 24.0855 23.7536L21.9184 23.2091C21.1982 23.0281 20.6895 22.378 20.6895 21.6327C20.6895 20.7355 21.4162 20.01 22.3121 20.01H23.0006H23.5794C24.1965 20.01 24.7065 20.347 25.0065 20.8359" stroke="#CC9F00" stroke-width="1.88" stroke-linecap="round" stroke-linejoin="round"/>
<path fill-rule="evenodd" clip-rule="evenodd" d="M33.3124 31.6899V31.6899C30.0022 31.0278 26.5877 31.1098 23.3133 31.9277L23.0001 32.007C19.5195 32.8765 15.8896 32.9637 12.372 32.2594L12.1698 32.2184C11.5514 32.0955 11.1074 31.5524 11.1074 30.9234V16.6007C11.1074 15.7669 11.8699 15.1419 12.6878 15.3044V15.3044C15.998 15.9664 19.4125 15.8845 22.6869 15.0665L23.3119 14.9106C26.5864 14.0927 30.0022 14.0107 33.311 14.6728L33.829 14.7758C34.4488 14.9 34.8928 15.4418 34.8928 16.0721V30.3949C34.8928 31.2287 34.1303 31.8537 33.3124 31.6899V31.6899Z" stroke="#CC9F00" stroke-width="1.88" stroke-linecap="round" stroke-linejoin="round"/>
</svg>
