<svg width="20" height="20" viewBox="0 0 20 20" fill="none" xmlns="http://www.w3.org/2000/svg">
<g clip-path="url(#clip0_2179_20095)">
<path fill-rule="evenodd" clip-rule="evenodd" d="M2.65039 13.3395V6.6594C2.65039 6.06842 2.96789 5.52291 3.48372 5.22784L9.31706 1.88781C9.83289 1.59274 10.4679 1.59274 10.9837 1.88781L16.8171 5.22784C17.3329 5.52291 17.6504 6.06925 17.6504 6.6594V13.3403C17.6504 13.9313 17.3329 14.4768 16.8171 14.7718L10.9837 18.1119C10.4679 18.4069 9.83289 18.4069 9.31706 18.1119L3.48372 14.7718C2.96789 14.4759 2.65039 13.9304 2.65039 13.3395Z" stroke="#18171D" stroke-width="1.5" stroke-linecap="round" stroke-linejoin="round"/>
<path d="M13.8349 11.145V8.21093L6.16797 3.81494" stroke="#18171D" stroke-width="1.5" stroke-linecap="round" stroke-linejoin="round"/>
<path d="M7.47931 14.6519L4.88672 13.1611" stroke="#18171D" stroke-width="1.5" stroke-linecap="round" stroke-linejoin="round"/>
<path d="M10.0039 10.4165V18.3332" stroke="#18171D" stroke-width="1.5" stroke-linecap="round" stroke-linejoin="round"/>
<path d="M2.55859 6.14648L10.0055 10.4163L17.4524 6.14648" stroke="#18171D" stroke-width="1.5" stroke-linecap="round" stroke-linejoin="round"/>
</g>
<defs>
<clipPath id="clip0_2179_20095">
<rect width="20" height="20" fill="white"/>
</clipPath>
</defs>
</svg>
