<svg width="250" height="136" viewBox="0 0 250 136" fill="none" xmlns="http://www.w3.org/2000/svg">
<g filter="url(#filter0_d_1890_39527)">
<rect x="25.875" y="16" width="199.214" height="68" rx="8" fill="white" shape-rendering="crispEdges"/>
<rect x="43.4908" y="31.6158" width="36.7684" height="36.7684" rx="18.3842" fill="#51CF66"/>
<rect x="43.4908" y="31.6158" width="36.7684" height="36.7684" rx="18.3842" stroke="#D3F9D8" stroke-width="4.76839"/>
<path d="M66.3742 46.9468L61.147 53.7113L58.0723 50.6365" stroke="white" stroke-width="2.10533" stroke-linecap="round" stroke-linejoin="round"/>
<path d="M100.078 37.1016C100.036 36.7318 99.8646 36.4453 99.5625 36.2422C99.2604 36.0365 98.8802 35.9336 98.4219 35.9336C98.0938 35.9336 97.8099 35.9857 97.5703 36.0898C97.3307 36.1914 97.1445 36.332 97.0117 36.5117C96.8815 36.6888 96.8164 36.8906 96.8164 37.1172C96.8164 37.3073 96.8607 37.4714 96.9492 37.6094C97.0404 37.7474 97.1589 37.8633 97.3047 37.957C97.4531 38.0482 97.612 38.125 97.7813 38.1875C97.9505 38.2474 98.1133 38.2969 98.2695 38.3359L99.0508 38.5391C99.306 38.6016 99.5677 38.6862 99.8359 38.793C100.104 38.8997 100.353 39.0404 100.582 39.2148C100.811 39.3893 100.996 39.6055 101.137 39.8633C101.28 40.1211 101.352 40.4297 101.352 40.7891C101.352 41.2422 101.234 41.6445 101 41.9961C100.768 42.3477 100.431 42.625 99.9883 42.8281C99.5482 43.0313 99.0156 43.1328 98.3906 43.1328C97.7917 43.1328 97.2734 43.0378 96.8359 42.8477C96.3984 42.6576 96.056 42.388 95.8086 42.0391C95.5612 41.6875 95.4245 41.2708 95.3984 40.7891H96.6094C96.6328 41.0781 96.7266 41.319 96.8906 41.5117C97.0573 41.7018 97.2695 41.8437 97.5273 41.9375C97.7878 42.0286 98.0729 42.0742 98.3828 42.0742C98.724 42.0742 99.0273 42.0208 99.293 41.9141C99.5612 41.8047 99.7721 41.6536 99.9258 41.4609C100.079 41.2656 100.156 41.0378 100.156 40.7773C100.156 40.5404 100.089 40.3464 99.9531 40.1953C99.8203 40.0443 99.6393 39.9193 99.4102 39.8203C99.1836 39.7214 98.9271 39.6341 98.6406 39.5586L97.6953 39.3008C97.0547 39.1263 96.5469 38.8698 96.1719 38.5312C95.7995 38.1927 95.6133 37.7448 95.6133 37.1875C95.6133 36.7266 95.7383 36.3242 95.9883 35.9805C96.2383 35.6367 96.5768 35.3698 97.0039 35.1797C97.431 34.987 97.9128 34.8906 98.4492 34.8906C98.9909 34.8906 99.4688 34.9857 99.8828 35.1758C100.299 35.3659 100.628 35.6276 100.867 35.9609C101.107 36.2917 101.232 36.6719 101.242 37.1016H100.078ZM104.446 43.1328C104.066 43.1328 103.722 43.0625 103.415 42.9219C103.108 42.7786 102.864 42.5716 102.685 42.3008C102.507 42.0299 102.419 41.6979 102.419 41.3047C102.419 40.9661 102.484 40.6875 102.614 40.4687C102.744 40.25 102.92 40.0768 103.142 39.9492C103.363 39.8216 103.61 39.7253 103.884 39.6602C104.157 39.5951 104.436 39.5456 104.72 39.5117C105.079 39.4701 105.371 39.4362 105.595 39.4102C105.819 39.3815 105.981 39.3359 106.083 39.2734C106.185 39.2109 106.235 39.1094 106.235 38.9687V38.9414C106.235 38.6003 106.139 38.3359 105.946 38.1484C105.756 37.9609 105.472 37.8672 105.095 37.8672C104.701 37.8672 104.392 37.9544 104.165 38.1289C103.941 38.3008 103.786 38.4922 103.7 38.7031L102.603 38.4531C102.733 38.0885 102.923 37.7943 103.173 37.5703C103.425 37.3437 103.716 37.1797 104.044 37.0781C104.372 36.974 104.717 36.9219 105.079 36.9219C105.319 36.9219 105.573 36.9505 105.841 37.0078C106.112 37.0625 106.364 37.1641 106.599 37.3125C106.836 37.4609 107.03 37.6732 107.181 37.9492C107.332 38.2227 107.407 38.5781 107.407 39.0156V43H106.267V42.1797H106.22C106.144 42.3307 106.031 42.4792 105.88 42.625C105.729 42.7708 105.535 42.8919 105.298 42.9883C105.061 43.0846 104.777 43.1328 104.446 43.1328ZM104.7 42.1953C105.023 42.1953 105.299 42.1315 105.528 42.0039C105.76 41.8763 105.936 41.7096 106.056 41.5039C106.178 41.2956 106.239 41.0729 106.239 40.8359V40.0625C106.198 40.1042 106.117 40.1432 105.997 40.1797C105.88 40.2135 105.746 40.2435 105.595 40.2695C105.444 40.293 105.297 40.3151 105.153 40.3359C105.01 40.3542 104.89 40.3698 104.794 40.3828C104.567 40.4115 104.36 40.4596 104.173 40.5273C103.988 40.5951 103.84 40.6927 103.728 40.8203C103.618 40.9453 103.563 41.112 103.563 41.3203C103.563 41.6094 103.67 41.8281 103.884 41.9766C104.097 42.1224 104.369 42.1953 104.7 42.1953ZM113.014 45.25V42.0664H112.943C112.873 42.194 112.771 42.3398 112.639 42.5039C112.508 42.668 112.329 42.8112 112.1 42.9336C111.87 43.056 111.574 43.1172 111.209 43.1172C110.725 43.1172 110.292 42.9935 109.912 42.7461C109.535 42.4961 109.238 42.1406 109.021 41.6797C108.808 41.2161 108.701 40.6602 108.701 40.0117C108.701 39.3633 108.809 38.8086 109.025 38.3477C109.244 37.8867 109.544 37.5339 109.924 37.2891C110.304 37.0443 110.735 36.9219 111.217 36.9219C111.589 36.9219 111.889 36.9844 112.115 37.1094C112.344 37.2318 112.521 37.375 112.646 37.5391C112.774 37.7031 112.873 37.8477 112.943 37.9727H113.041V37H114.182V45.25H113.014ZM111.467 42.1211C111.803 42.1211 112.087 42.0326 112.318 41.8555C112.553 41.6758 112.73 41.4271 112.85 41.1094C112.972 40.7917 113.033 40.4219 113.033 40C113.033 39.5833 112.973 39.2187 112.854 38.9062C112.734 38.5937 112.558 38.3503 112.326 38.1758C112.094 38.0013 111.808 37.9141 111.467 37.9141C111.115 37.9141 110.822 38.0052 110.588 38.1875C110.354 38.3698 110.176 38.6185 110.057 38.9336C109.939 39.2487 109.881 39.6042 109.881 40C109.881 40.401 109.941 40.7617 110.061 41.082C110.18 41.4023 110.357 41.6562 110.592 41.8437C110.829 42.0286 111.12 42.1211 111.467 42.1211ZM119.553 40.5117V37H120.725V43H119.576V41.9609H119.514C119.376 42.2813 119.154 42.5482 118.85 42.7617C118.548 42.9727 118.171 43.0781 117.721 43.0781C117.335 43.0781 116.994 42.9935 116.697 42.8242C116.403 42.6523 116.171 42.3984 116.002 42.0625C115.835 41.7266 115.752 41.3112 115.752 40.8164V37H116.92V40.6758C116.92 41.0846 117.033 41.4102 117.26 41.6523C117.486 41.8945 117.781 42.0156 118.143 42.0156C118.361 42.0156 118.579 41.9609 118.795 41.8516C119.014 41.7422 119.195 41.5768 119.338 41.3555C119.484 41.1341 119.555 40.8529 119.553 40.5117ZM124.88 43.1211C124.289 43.1211 123.78 42.9948 123.353 42.7422C122.928 42.487 122.6 42.1289 122.368 41.668C122.139 41.2044 122.024 40.6615 122.024 40.0391C122.024 39.4245 122.139 38.8828 122.368 38.4141C122.6 37.9453 122.923 37.5794 123.337 37.3164C123.754 37.0534 124.241 36.9219 124.798 36.9219C125.136 36.9219 125.465 36.9779 125.782 37.0898C126.1 37.2018 126.385 37.3776 126.638 37.6172C126.89 37.8568 127.09 38.168 127.235 38.5508C127.381 38.931 127.454 39.3932 127.454 39.9375V40.3516H122.685V39.4766H126.31C126.31 39.1693 126.247 38.8971 126.122 38.6602C125.997 38.4206 125.821 38.2318 125.595 38.0937C125.371 37.9557 125.108 37.8867 124.806 37.8867C124.478 37.8867 124.191 37.9674 123.946 38.1289C123.704 38.2878 123.517 38.4961 123.384 38.7539C123.254 39.0091 123.188 39.2865 123.188 39.5859V40.2695C123.188 40.6706 123.259 41.0117 123.399 41.293C123.543 41.5742 123.742 41.7891 123.997 41.9375C124.252 42.0833 124.55 42.1562 124.892 42.1562C125.113 42.1562 125.315 42.125 125.497 42.0625C125.679 41.9974 125.837 41.901 125.97 41.7734C126.103 41.6458 126.204 41.4883 126.274 41.3008L127.38 41.5C127.291 41.8255 127.132 42.1107 126.903 42.3555C126.677 42.5977 126.392 42.7865 126.048 42.9219C125.707 43.0547 125.317 43.1211 124.88 43.1211ZM131.661 43V37H132.79V37.9531H132.853C132.962 37.6302 133.155 37.3763 133.431 37.1914C133.709 37.0039 134.024 36.9102 134.376 36.9102C134.449 36.9102 134.535 36.9128 134.634 36.918C134.735 36.9232 134.815 36.9297 134.872 36.9375V38.0547C134.825 38.0417 134.742 38.0273 134.622 38.0117C134.502 37.9935 134.382 37.9844 134.263 37.9844C133.987 37.9844 133.741 38.043 133.524 38.1602C133.311 38.2747 133.142 38.4349 133.017 38.6406C132.892 38.8437 132.829 39.0755 132.829 39.3359V43H131.661ZM138.254 43.1211C137.663 43.1211 137.154 42.9948 136.727 42.7422C136.302 42.487 135.974 42.1289 135.742 41.668C135.513 41.2044 135.398 40.6615 135.398 40.0391C135.398 39.4245 135.513 38.8828 135.742 38.4141C135.974 37.9453 136.297 37.5794 136.711 37.3164C137.128 37.0534 137.615 36.9219 138.172 36.9219C138.51 36.9219 138.839 36.9779 139.156 37.0898C139.474 37.2018 139.759 37.3776 140.012 37.6172C140.264 37.8568 140.464 38.168 140.609 38.5508C140.755 38.931 140.828 39.3932 140.828 39.9375V40.3516H136.059V39.4766H139.684C139.684 39.1693 139.621 38.8971 139.496 38.6602C139.371 38.4206 139.195 38.2318 138.969 38.0937C138.745 37.9557 138.482 37.8867 138.18 37.8867C137.852 37.8867 137.565 37.9674 137.32 38.1289C137.078 38.2878 136.891 38.4961 136.758 38.7539C136.628 39.0091 136.563 39.2865 136.563 39.5859V40.2695C136.563 40.6706 136.633 41.0117 136.773 41.293C136.917 41.5742 137.116 41.7891 137.371 41.9375C137.626 42.0833 137.924 42.1562 138.266 42.1562C138.487 42.1562 138.689 42.125 138.871 42.0625C139.053 41.9974 139.211 41.901 139.344 41.7734C139.477 41.6458 139.578 41.4883 139.648 41.3008L140.754 41.5C140.665 41.8255 140.507 42.1107 140.277 42.3555C140.051 42.5977 139.766 42.7865 139.422 42.9219C139.081 43.0547 138.691 43.1211 138.254 43.1211ZM143.87 43.1328C143.49 43.1328 143.146 43.0625 142.839 42.9219C142.532 42.7786 142.288 42.5716 142.108 42.3008C141.931 42.0299 141.843 41.6979 141.843 41.3047C141.843 40.9661 141.908 40.6875 142.038 40.4687C142.168 40.25 142.344 40.0768 142.565 39.9492C142.787 39.8216 143.034 39.7253 143.308 39.6602C143.581 39.5951 143.86 39.5456 144.144 39.5117C144.503 39.4701 144.795 39.4362 145.019 39.4102C145.243 39.3815 145.405 39.3359 145.507 39.2734C145.608 39.2109 145.659 39.1094 145.659 38.9687V38.9414C145.659 38.6003 145.563 38.3359 145.37 38.1484C145.18 37.9609 144.896 37.8672 144.519 37.8672C144.125 37.8672 143.815 37.9544 143.589 38.1289C143.365 38.3008 143.21 38.4922 143.124 38.7031L142.026 38.4531C142.157 38.0885 142.347 37.7943 142.597 37.5703C142.849 37.3437 143.14 37.1797 143.468 37.0781C143.796 36.974 144.141 36.9219 144.503 36.9219C144.743 36.9219 144.996 36.9505 145.265 37.0078C145.535 37.0625 145.788 37.1641 146.022 37.3125C146.259 37.4609 146.453 37.6732 146.604 37.9492C146.756 38.2227 146.831 38.5781 146.831 39.0156V43H145.69V42.1797H145.644C145.568 42.3307 145.455 42.4792 145.304 42.625C145.153 42.7708 144.959 42.8919 144.722 42.9883C144.485 43.0846 144.201 43.1328 143.87 43.1328ZM144.124 42.1953C144.447 42.1953 144.723 42.1315 144.952 42.0039C145.184 41.8763 145.36 41.7096 145.479 41.5039C145.602 41.2956 145.663 41.0729 145.663 40.8359V40.0625C145.621 40.1042 145.541 40.1432 145.421 40.1797C145.304 40.2135 145.17 40.2435 145.019 40.2695C144.868 40.293 144.72 40.3151 144.577 40.3359C144.434 40.3542 144.314 40.3698 144.218 40.3828C143.991 40.4115 143.784 40.4596 143.597 40.5273C143.412 40.5951 143.263 40.6927 143.151 40.8203C143.042 40.9453 142.987 41.112 142.987 41.3203C142.987 41.6094 143.094 41.8281 143.308 41.9766C143.521 42.1224 143.793 42.1953 144.124 42.1953ZM149.555 35V43H148.387V35H149.555ZM151.126 43V37H152.294V43H151.126ZM151.716 36.0742C151.513 36.0742 151.338 36.0065 151.192 35.8711C151.049 35.7331 150.978 35.569 150.978 35.3789C150.978 35.1862 151.049 35.0221 151.192 34.8867C151.338 34.7487 151.513 34.6797 151.716 34.6797C151.919 34.6797 152.092 34.7487 152.235 34.8867C152.381 35.0221 152.454 35.1862 152.454 35.3789C152.454 35.569 152.381 35.7331 152.235 35.8711C152.092 36.0065 151.919 36.0742 151.716 36.0742ZM153.74 43V42.1992L156.99 38.0703V38.0156H153.846V37H158.447V37.8516L155.322 41.9297V41.9844H158.557V43H153.74ZM161.681 43.1328C161.3 43.1328 160.957 43.0625 160.649 42.9219C160.342 42.7786 160.099 42.5716 159.919 42.3008C159.742 42.0299 159.653 41.6979 159.653 41.3047C159.653 40.9661 159.718 40.6875 159.849 40.4687C159.979 40.25 160.155 40.0768 160.376 39.9492C160.597 39.8216 160.845 39.7253 161.118 39.6602C161.392 39.5951 161.67 39.5456 161.954 39.5117C162.313 39.4701 162.605 39.4362 162.829 39.4102C163.053 39.3815 163.216 39.3359 163.317 39.2734C163.419 39.2109 163.47 39.1094 163.47 38.9687V38.9414C163.47 38.6003 163.373 38.3359 163.181 38.1484C162.991 37.9609 162.707 37.8672 162.329 37.8672C161.936 37.8672 161.626 37.9544 161.399 38.1289C161.175 38.3008 161.021 38.4922 160.935 38.7031L159.837 38.4531C159.967 38.0885 160.157 37.7943 160.407 37.5703C160.66 37.3437 160.95 37.1797 161.278 37.0781C161.606 36.974 161.951 36.9219 162.313 36.9219C162.553 36.9219 162.807 36.9505 163.075 37.0078C163.346 37.0625 163.599 37.1641 163.833 37.3125C164.07 37.4609 164.264 37.6732 164.415 37.9492C164.566 38.2227 164.642 38.5781 164.642 39.0156V43H163.501V42.1797H163.454C163.379 42.3307 163.265 42.4792 163.114 42.625C162.963 42.7708 162.769 42.8919 162.532 42.9883C162.295 43.0846 162.011 43.1328 161.681 43.1328ZM161.935 42.1953C162.257 42.1953 162.534 42.1315 162.763 42.0039C162.994 41.8763 163.17 41.7096 163.29 41.5039C163.412 41.2956 163.474 41.0729 163.474 40.8359V40.0625C163.432 40.1042 163.351 40.1432 163.231 40.1797C163.114 40.2135 162.98 40.2435 162.829 40.2695C162.678 40.293 162.531 40.3151 162.388 40.3359C162.244 40.3542 162.125 40.3698 162.028 40.3828C161.802 40.4115 161.595 40.4596 161.407 40.5273C161.222 40.5951 161.074 40.6927 160.962 40.8203C160.853 40.9453 160.798 41.112 160.798 41.3203C160.798 41.6094 160.905 41.8281 161.118 41.9766C161.332 42.1224 161.604 42.1953 161.935 42.1953ZM168.443 43.1172C167.959 43.1172 167.527 42.9935 167.146 42.7461C166.769 42.4961 166.472 42.1406 166.256 41.6797C166.042 41.2161 165.936 40.6602 165.936 40.0117C165.936 39.3633 166.044 38.8086 166.26 38.3477C166.479 37.8867 166.778 37.5339 167.158 37.2891C167.538 37.0443 167.969 36.9219 168.451 36.9219C168.824 36.9219 169.123 36.9844 169.35 37.1094C169.579 37.2318 169.756 37.375 169.881 37.5391C170.008 37.7031 170.107 37.8477 170.178 37.9727H170.248V35H171.416V43H170.275V42.0664H170.178C170.107 42.194 170.006 42.3398 169.873 42.5039C169.743 42.668 169.563 42.8112 169.334 42.9336C169.105 43.056 168.808 43.1172 168.443 43.1172ZM168.701 42.1211C169.037 42.1211 169.321 42.0326 169.553 41.8555C169.787 41.6758 169.964 41.4271 170.084 41.1094C170.206 40.7917 170.268 40.4219 170.268 40C170.268 39.5833 170.208 39.2187 170.088 38.9062C169.968 38.5937 169.792 38.3503 169.561 38.1758C169.329 38.0013 169.042 37.9141 168.701 37.9141C168.35 37.9141 168.057 38.0052 167.822 38.1875C167.588 38.3698 167.411 38.6185 167.291 38.9336C167.174 39.2487 167.115 39.6042 167.115 40C167.115 40.401 167.175 40.7617 167.295 41.082C167.415 41.4023 167.592 41.6562 167.826 41.8437C168.063 42.0286 168.355 42.1211 168.701 42.1211ZM175.61 43.1211C175.048 43.1211 174.557 42.9922 174.138 42.7344C173.718 42.4766 173.393 42.1159 173.161 41.6523C172.929 41.1888 172.813 40.6471 172.813 40.0273C172.813 39.4049 172.929 38.8607 173.161 38.3945C173.393 37.9284 173.718 37.5664 174.138 37.3086C174.557 37.0508 175.048 36.9219 175.61 36.9219C176.173 36.9219 176.664 37.0508 177.083 37.3086C177.502 37.5664 177.828 37.9284 178.06 38.3945C178.291 38.8607 178.407 39.4049 178.407 40.0273C178.407 40.6471 178.291 41.1888 178.06 41.6523C177.828 42.1159 177.502 42.4766 177.083 42.7344C176.664 42.9922 176.173 43.1211 175.61 43.1211ZM175.614 42.1406C175.979 42.1406 176.281 42.0443 176.521 41.8516C176.76 41.6589 176.937 41.4023 177.052 41.082C177.169 40.7617 177.228 40.4089 177.228 40.0234C177.228 39.6406 177.169 39.2891 177.052 38.9687C176.937 38.6458 176.76 38.3867 176.521 38.1914C176.281 37.9961 175.979 37.8984 175.614 37.8984C175.247 37.8984 174.942 37.9961 174.7 38.1914C174.461 38.3867 174.282 38.6458 174.165 38.9687C174.05 39.2891 173.993 39.6406 173.993 40.0234C173.993 40.4089 174.05 40.7617 174.165 41.082C174.282 41.4023 174.461 41.6589 174.7 41.8516C174.942 42.0443 175.247 42.1406 175.614 42.1406Z" fill="#868E96"/>
<path d="M95.8402 65V54.8182H99.6584C100.441 54.8182 101.097 54.9541 101.627 55.2259C102.161 55.4976 102.563 55.8788 102.835 56.3693C103.11 56.8565 103.248 57.425 103.248 58.0746C103.248 58.7275 103.109 59.2943 102.83 59.7749C102.555 60.2521 102.149 60.6217 101.612 60.8835C101.075 61.142 100.416 61.2713 99.6335 61.2713H96.9141V59.7401H99.3849C99.8423 59.7401 100.217 59.6771 100.509 59.5511C100.8 59.4219 101.016 59.2346 101.155 58.9893C101.297 58.7408 101.369 58.4358 101.369 58.0746C101.369 57.7133 101.297 57.4051 101.155 57.1499C101.012 56.8913 100.795 56.6958 100.504 56.5632C100.212 56.4273 99.8357 56.3594 99.375 56.3594H97.6847V65H95.8402ZM101.1 60.3864L103.621 65H101.562L99.0866 60.3864H101.1ZM108.127 66.2727V53.5455H108.943V66.2727H108.127ZM110.479 57.6172C110.433 57.183 110.237 56.8449 109.892 56.603C109.551 56.361 109.107 56.2401 108.56 56.2401C108.176 56.2401 107.846 56.2981 107.571 56.4141C107.296 56.5301 107.085 56.6875 106.939 56.8864C106.793 57.0852 106.719 57.3123 106.716 57.5675C106.716 57.7796 106.764 57.9635 106.86 58.1193C106.959 58.2751 107.093 58.4077 107.262 58.517C107.431 58.6231 107.619 58.7126 107.824 58.7855C108.03 58.8584 108.237 58.9197 108.446 58.9695L109.4 59.2081C109.785 59.2976 110.154 59.4186 110.509 59.571C110.867 59.7235 111.187 59.9157 111.468 60.1477C111.753 60.3797 111.979 60.6598 112.145 60.9879C112.31 61.3161 112.393 61.7005 112.393 62.1413C112.393 62.7379 112.241 63.2633 111.936 63.7173C111.631 64.1681 111.19 64.5211 110.613 64.7763C110.04 65.0282 109.346 65.1541 108.53 65.1541C107.738 65.1541 107.05 65.0315 106.467 64.7862C105.887 64.541 105.433 64.183 105.105 63.7124C104.78 63.2417 104.604 62.6683 104.578 61.9922H106.392C106.419 62.3468 106.528 62.6418 106.721 62.8771C106.913 63.1125 107.163 63.2881 107.471 63.4041C107.783 63.5201 108.131 63.5781 108.515 63.5781C108.916 63.5781 109.268 63.5185 109.569 63.3991C109.874 63.2765 110.113 63.1075 110.285 62.892C110.458 62.6733 110.545 62.4181 110.549 62.1264C110.545 61.8613 110.467 61.6425 110.315 61.4702C110.163 61.2945 109.949 61.1487 109.674 61.0327C109.402 60.9134 109.084 60.8073 108.719 60.7145L107.561 60.4162C106.722 60.2008 106.059 59.8743 105.572 59.4368C105.088 58.996 104.846 58.411 104.846 57.6818C104.846 57.0819 105.009 56.5566 105.333 56.1058C105.662 55.6551 106.107 55.3054 106.671 55.0568C107.234 54.8049 107.872 54.679 108.585 54.679C109.307 54.679 109.94 54.8049 110.484 55.0568C111.031 55.3054 111.46 55.6518 111.772 56.0959C112.083 56.5367 112.244 57.0438 112.254 57.6172H110.479ZM120.945 54.679C121.433 54.6823 121.907 54.7685 122.367 54.9375C122.831 55.1032 123.249 55.375 123.62 55.7528C123.991 56.1274 124.286 56.6295 124.505 57.2592C124.724 57.889 124.833 58.6679 124.833 59.5959C124.837 60.4709 124.744 61.2531 124.555 61.9425C124.369 62.6286 124.102 63.2086 123.754 63.6825C123.406 64.1565 122.987 64.5178 122.497 64.7663C122.006 65.0149 121.454 65.1392 120.841 65.1392C120.198 65.1392 119.628 65.0133 119.131 64.7614C118.637 64.5095 118.238 64.1648 117.933 63.7273C117.628 63.2898 117.441 62.7893 117.371 62.2259H119.186C119.278 62.6302 119.467 62.9517 119.752 63.1903C120.041 63.4257 120.404 63.5433 120.841 63.5433C121.547 63.5433 122.091 63.2367 122.472 62.6236C122.853 62.0104 123.044 61.1586 123.044 60.0682H122.974C122.811 60.3598 122.601 60.6117 122.343 60.8239C122.084 61.0327 121.791 61.1934 121.463 61.3061C121.138 61.4188 120.793 61.4751 120.428 61.4751C119.832 61.4751 119.295 61.3326 118.818 61.0476C118.344 60.7625 117.968 60.3714 117.689 59.8743C117.414 59.3771 117.275 58.8087 117.271 58.169C117.271 57.5062 117.424 56.9112 117.729 56.3842C118.037 55.8539 118.466 55.4363 119.017 55.1314C119.567 54.8232 120.21 54.6723 120.945 54.679ZM120.95 56.1705C120.593 56.1705 120.269 56.2583 119.981 56.4339C119.696 56.6063 119.471 56.8416 119.305 57.1399C119.142 57.4349 119.061 57.7647 119.061 58.1293C119.065 58.4905 119.146 58.8187 119.305 59.1136C119.467 59.4086 119.688 59.6423 119.966 59.8146C120.248 59.987 120.569 60.0732 120.931 60.0732C121.199 60.0732 121.449 60.0218 121.681 59.919C121.913 59.8163 122.115 59.6738 122.288 59.4915C122.463 59.3059 122.599 59.0954 122.695 58.8601C122.795 58.6248 122.843 58.3762 122.84 58.1143C122.84 57.7663 122.757 57.4448 122.591 57.1499C122.429 56.8549 122.205 56.6179 121.92 56.4389C121.638 56.2599 121.315 56.1705 120.95 56.1705ZM130.252 65.1939C129.434 65.1939 128.731 64.9867 128.144 64.5724C127.561 64.1548 127.112 63.5533 126.797 62.7678C126.485 61.9789 126.33 61.0294 126.33 59.919C126.333 58.8087 126.49 57.8641 126.802 57.0852C127.117 56.303 127.566 55.7064 128.149 55.2955C128.736 54.8845 129.437 54.679 130.252 54.679C131.068 54.679 131.769 54.8845 132.355 55.2955C132.942 55.7064 133.391 56.303 133.703 57.0852C134.017 57.8674 134.175 58.812 134.175 59.919C134.175 61.0327 134.017 61.9839 133.703 62.7727C133.391 63.5582 132.942 64.1581 132.355 64.5724C131.772 64.9867 131.071 65.1939 130.252 65.1939ZM130.252 63.6378C130.889 63.6378 131.391 63.3246 131.759 62.6982C132.13 62.0684 132.316 61.142 132.316 59.919C132.316 59.1103 132.231 58.4309 132.062 57.8807C131.893 57.3305 131.654 56.9162 131.346 56.6378C131.038 56.3561 130.673 56.2152 130.252 56.2152C129.619 56.2152 129.119 56.5301 128.751 57.1598C128.383 57.7862 128.197 58.706 128.194 59.919C128.191 60.7311 128.272 61.4138 128.438 61.9673C128.607 62.5208 128.845 62.9384 129.154 63.2202C129.462 63.4986 129.828 63.6378 130.252 63.6378ZM136.559 65.1094C136.257 65.1094 135.999 65.0033 135.783 64.7912C135.568 64.5791 135.462 64.3205 135.465 64.0156C135.462 63.7173 135.568 63.4621 135.783 63.25C135.999 63.0379 136.257 62.9318 136.559 62.9318C136.85 62.9318 137.104 63.0379 137.319 63.25C137.538 63.4621 137.649 63.7173 137.653 64.0156C137.649 64.2178 137.596 64.4018 137.493 64.5675C137.394 64.7332 137.261 64.8658 137.096 64.9652C136.933 65.0613 136.754 65.1094 136.559 65.1094ZM139.536 65L143.866 56.429V56.3594H138.839V54.8182H145.775V56.3942L141.45 65H139.536ZM150.924 65.1939C150.106 65.1939 149.403 64.9867 148.816 64.5724C148.233 64.1548 147.784 63.5533 147.469 62.7678C147.157 61.9789 147.002 61.0294 147.002 59.919C147.005 58.8087 147.162 57.8641 147.474 57.0852C147.789 56.303 148.238 55.7064 148.821 55.2955C149.408 54.8845 150.109 54.679 150.924 54.679C151.74 54.679 152.441 54.8845 153.027 55.2955C153.614 55.7064 154.063 56.303 154.374 57.0852C154.689 57.8674 154.847 58.812 154.847 59.919C154.847 61.0327 154.689 61.9839 154.374 62.7727C154.063 63.5582 153.614 64.1581 153.027 64.5724C152.444 64.9867 151.743 65.1939 150.924 65.1939ZM150.924 63.6378C151.561 63.6378 152.063 63.3246 152.431 62.6982C152.802 62.0684 152.987 61.142 152.987 59.919C152.987 59.1103 152.903 58.4309 152.734 57.8807C152.565 57.3305 152.326 56.9162 152.018 56.6378C151.71 56.3561 151.345 56.2152 150.924 56.2152C150.291 56.2152 149.791 56.5301 149.423 57.1598C149.055 57.7862 148.869 58.706 148.866 59.919C148.863 60.7311 148.944 61.4138 149.11 61.9673C149.279 62.5208 149.517 62.9384 149.825 63.2202C150.134 63.4986 150.5 63.6378 150.924 63.6378ZM160.262 65.1939C159.443 65.1939 158.741 64.9867 158.154 64.5724C157.571 64.1548 157.122 63.5533 156.807 62.7678C156.495 61.9789 156.339 61.0294 156.339 59.919C156.343 58.8087 156.5 57.8641 156.812 57.0852C157.127 56.303 157.576 55.7064 158.159 55.2955C158.746 54.8845 159.447 54.679 160.262 54.679C161.077 54.679 161.778 54.8845 162.365 55.2955C162.952 55.7064 163.401 56.303 163.712 57.0852C164.027 57.8674 164.185 58.812 164.185 59.919C164.185 61.0327 164.027 61.9839 163.712 62.7727C163.401 63.5582 162.952 64.1581 162.365 64.5724C161.782 64.9867 161.081 65.1939 160.262 65.1939ZM160.262 63.6378C160.898 63.6378 161.401 63.3246 161.768 62.6982C162.14 62.0684 162.325 61.142 162.325 59.919C162.325 59.1103 162.241 58.4309 162.072 57.8807C161.903 57.3305 161.664 56.9162 161.356 56.6378C161.048 56.3561 160.683 56.2152 160.262 56.2152C159.629 56.2152 159.129 56.5301 158.761 57.1598C158.393 57.7862 158.207 58.706 158.204 59.919C158.201 60.7311 158.282 61.4138 158.447 61.9673C158.616 62.5208 158.855 62.9384 159.163 63.2202C159.472 63.4986 159.838 63.6378 160.262 63.6378ZM167.573 63.608L167.508 64.1548C167.462 64.5724 167.379 64.9967 167.26 65.4276C167.144 65.8617 167.021 66.2611 166.892 66.6257C166.762 66.9903 166.658 67.277 166.578 67.4858H165.365C165.412 67.2836 165.475 67.0085 165.554 66.6605C165.637 66.3125 165.717 65.9214 165.793 65.4872C165.869 65.053 165.921 64.6122 165.947 64.1648L165.982 63.608H167.573ZM172.936 65.1939C172.117 65.1939 171.415 64.9867 170.828 64.5724C170.245 64.1548 169.796 63.5533 169.481 62.7678C169.169 61.9789 169.013 61.0294 169.013 59.919C169.017 58.8087 169.174 57.8641 169.486 57.0852C169.8 56.303 170.25 55.7064 170.833 55.2955C171.42 54.8845 172.121 54.679 172.936 54.679C173.751 54.679 174.452 54.8845 175.039 55.2955C175.626 55.7064 176.075 56.303 176.386 57.0852C176.701 57.8674 176.858 58.812 176.858 59.919C176.858 61.0327 176.701 61.9839 176.386 62.7727C176.075 63.5582 175.626 64.1581 175.039 64.5724C174.456 64.9867 173.755 65.1939 172.936 65.1939ZM172.936 63.6378C173.572 63.6378 174.074 63.3246 174.442 62.6982C174.814 62.0684 174.999 61.142 174.999 59.919C174.999 59.1103 174.915 58.4309 174.746 57.8807C174.577 57.3305 174.338 56.9162 174.03 56.6378C173.721 56.3561 173.357 56.2152 172.936 56.2152C172.303 56.2152 171.802 56.5301 171.434 57.1598C171.067 57.7862 170.881 58.706 170.878 59.919C170.874 60.7311 170.956 61.4138 171.121 61.9673C171.29 62.5208 171.529 62.9384 171.837 63.2202C172.145 63.4986 172.512 63.6378 172.936 63.6378ZM182.274 65.1939C181.455 65.1939 180.752 64.9867 180.166 64.5724C179.583 64.1548 179.133 63.5533 178.819 62.7678C178.507 61.9789 178.351 61.0294 178.351 59.919C178.355 58.8087 178.512 57.8641 178.824 57.0852C179.138 56.303 179.587 55.7064 180.171 55.2955C180.757 54.8845 181.458 54.679 182.274 54.679C183.089 54.679 183.79 54.8845 184.377 55.2955C184.963 55.7064 185.413 56.303 185.724 57.0852C186.039 57.8674 186.196 58.812 186.196 59.919C186.196 61.0327 186.039 61.9839 185.724 62.7727C185.413 63.5582 184.963 64.1581 184.377 64.5724C183.793 64.9867 183.092 65.1939 182.274 65.1939ZM182.274 63.6378C182.91 63.6378 183.412 63.3246 183.78 62.6982C184.151 62.0684 184.337 61.142 184.337 59.919C184.337 59.1103 184.252 58.4309 184.083 57.8807C183.914 57.3305 183.676 56.9162 183.368 56.6378C183.059 56.3561 182.695 56.2152 182.274 56.2152C181.641 56.2152 181.14 56.5301 180.772 57.1598C180.404 57.7862 180.219 58.706 180.216 59.919C180.212 60.7311 180.293 61.4138 180.459 61.9673C180.628 62.5208 180.867 62.9384 181.175 63.2202C181.483 63.4986 181.85 63.6378 182.274 63.6378Z" fill="#18171D"/>
</g>
<defs>
<filter id="filter0_d_1890_39527" x="2.74523" y="0.580152" width="245.472" height="114.26" filterUnits="userSpaceOnUse" color-interpolation-filters="sRGB">
<feFlood flood-opacity="0" result="BackgroundImageFix"/>
<feColorMatrix in="SourceAlpha" type="matrix" values="0 0 0 0 0 0 0 0 0 0 0 0 0 0 0 0 0 0 127 0" result="hardAlpha"/>
<feOffset dy="7.70992"/>
<feGaussianBlur stdDeviation="11.5649"/>
<feComposite in2="hardAlpha" operator="out"/>
<feColorMatrix type="matrix" values="0 0 0 0 0.370833 0 0 0 0 0.31799 0 0 0 0 0.0185417 0 0 0 0.2 0"/>
<feBlend mode="normal" in2="BackgroundImageFix" result="effect1_dropShadow_1890_39527"/>
<feBlend mode="normal" in="SourceGraphic" in2="effect1_dropShadow_1890_39527" result="shape"/>
</filter>
</defs>
</svg>
