<svg width="20" height="20" viewBox="0 0 20 20" fill="none" xmlns="http://www.w3.org/2000/svg">
<path fill-rule="evenodd" clip-rule="evenodd" d="M7.6875 5.37647V5.37647C7.6875 4.0998 8.7225 3.06396 10 3.06396V3.06396C11.2767 3.06396 12.3125 4.09896 12.3125 5.37647V5.37647C12.3125 6.65313 11.2775 7.68897 10 7.68897V7.68897C8.7225 7.6873 7.6875 6.6523 7.6875 5.37647Z" stroke="#18171D" stroke-width="1.5" stroke-linecap="round" stroke-linejoin="round"/>
<path fill-rule="evenodd" clip-rule="evenodd" d="M2.08398 14.6235V14.6235C2.08398 13.3469 3.11898 12.311 4.39648 12.311V12.311C5.67315 12.311 6.70898 13.346 6.70898 14.6235V14.6235C6.70815 15.9002 5.67398 16.936 4.39648 16.936V16.936C3.11898 16.936 2.08398 15.901 2.08398 14.6235Z" stroke="#18171D" stroke-width="1.5" stroke-linecap="round" stroke-linejoin="round"/>
<path fill-rule="evenodd" clip-rule="evenodd" d="M13.293 14.6235V14.6235C13.293 13.3469 14.328 12.311 15.6055 12.311V12.311C16.8821 12.311 17.918 13.346 17.918 14.6235V14.6235C17.918 15.9002 16.883 16.936 15.6055 16.936V16.936C14.3271 16.936 13.293 15.901 13.293 14.6235H13.293Z" stroke="#18171D" stroke-width="1.5" stroke-linecap="round" stroke-linejoin="round"/>
<path d="M7.07539 9.93311L5.40039 12.5498" stroke="#18171D" stroke-width="1.5" stroke-linecap="round" stroke-linejoin="round"/>
<path d="M11.25 7.31689L12.925 9.93356" stroke="#18171D" stroke-width="1.5" stroke-linecap="round" stroke-linejoin="round"/>
<path d="M13.2917 14.6249H10" stroke="#18171D" stroke-width="1.5" stroke-linecap="round" stroke-linejoin="round"/>
</svg>
