<svg width="40" height="41" viewBox="0 0 40 41" fill="none" xmlns="http://www.w3.org/2000/svg">
<g opacity="0.8">
<g clip-path="url(#clip0_1890_66949)">
<path d="M4.15913 4.47998L4.54025 4.65528C5.72625 5.19568 33.5634 17.8994 34.3399 18.2798C35.4392 18.7851 36 19.4101 36 20.135V20.4949C35.9875 21.0548 35.6803 21.8427 34.34 22.5016L34.3351 22.5038C33.6894 22.8059 27.1168 25.7872 20.1583 28.9448C19.5458 29.2228 18.926 29.5039 18.3049 29.7857L17.8906 29.9737C11.745 32.7621 5.5775 35.5615 4.74338 35.9478V36.45L4.28825 35.9488C4.26612 35.923 4.24575 35.9014 4.26937 35.8663H4.255V33.245C4.255 32.3509 4.40625 31.9209 5.92625 31.2578C6.57363 30.9853 12.1174 28.4789 17.7485 25.9277L18.411 25.6275C23.6001 23.2762 28.7032 20.9598 29.9565 20.3918C27.3105 19.1884 7.4745 10.1724 6.11538 9.52059L5.95463 9.44432C4.94975 8.96784 4.15913 8.59251 4.15913 7.60043V4.47998ZM6.7325 13.5939C8.0745 14.159 21.0527 20.0556 21.1835 20.1164L21.478 20.2495L21.1787 20.3805C21.1787 20.3805 20.3015 20.7631 19.3281 21.2085C18.4949 21.6087 17.7153 21.8087 16.9404 21.8087C16.2521 21.8087 15.5701 21.6519 14.8519 21.3395C14.0869 21.0051 11.9315 20.0317 9.74988 19.0427L9.45237 18.9078C7.6684 18.0987 5.88561 17.2886 4.104 16.4773L4 16.4298V14.4272C4 13.9672 4.3025 13.6033 4.83325 13.4269C5.40175 13.2372 6.112 13.299 6.7325 13.5939Z" fill="#18171D"/>
</g>
</g>
<defs>
<clipPath id="clip0_1890_66949">
<rect width="32" height="32" fill="white" transform="translate(4 4.47998)"/>
</clipPath>
</defs>
</svg>
