<svg width="25" height="25" viewBox="0 0 25 25" fill="none" xmlns="http://www.w3.org/2000/svg">
<path fill-rule="evenodd" clip-rule="evenodd" d="M7.88467 3.08398H16.8937C19.3757 3.08398 21.3887 5.09598 21.3887 7.57998V16.589C21.3887 19.071 19.3767 21.084 16.8927 21.084H7.88467C5.40167 21.084 3.38867 19.072 3.38867 16.588V7.57998C3.38867 5.09698 5.40067 3.08398 7.88467 3.08398V3.08398Z" fill="#18171D" stroke="#18171D" stroke-width="1.5" stroke-linecap="round" stroke-linejoin="round"/>
<path fill-rule="evenodd" clip-rule="evenodd" d="M17.5871 6.87827C17.3081 6.87977 17.0816 7.10627 17.0816 7.38527C17.0816 7.66427 17.3096 7.89077 17.5886 7.89077C17.8676 7.89077 18.0941 7.66427 18.0941 7.38527C18.0956 7.10477 17.8676 6.87827 17.5871 6.87827Z" fill="white"/>
<path d="M17.5871 6.87827C17.3081 6.87977 17.0816 7.10627 17.0816 7.38527C17.0816 7.66427 17.3096 7.89077 17.5886 7.89077C17.8676 7.89077 18.0941 7.66427 18.0941 7.38527C18.0956 7.10477 17.8676 6.87827 17.5871 6.87827" stroke="white" stroke-width="1.5" stroke-linecap="round" stroke-linejoin="round"/>
<path fill-rule="evenodd" clip-rule="evenodd" d="M14.51 9.96267C15.6816 11.1342 15.6816 13.0337 14.51 14.2053C13.3384 15.3769 11.4389 15.3769 10.2674 14.2053C9.09578 13.0337 9.09578 11.1342 10.2674 9.96267C11.4389 8.79109 13.3384 8.79109 14.51 9.96267Z" fill="white"/>
</svg>
