<svg width="36" height="33" viewBox="0 0 36 33" fill="none" xmlns="http://www.w3.org/2000/svg">
<path d="M0.821706 23.6797L12.6709 3.39404C14.176 4.28017 21.7658 8.48048 22.9916 9.27933L11.1424 29.5661C9.84649 31.2781 -0.820051 26.2777 0.821706 23.6786V23.6797Z" fill="#18171D"/>
<path d="M34.8669 23.679L23.0177 3.39459C21.3611 0.63779 17.7935 -0.364049 14.8631 1.26418C11.9327 2.89242 11.0405 6.39983 12.697 9.27974L24.5462 29.5666C26.2027 32.3222 29.7705 33.3239 32.7009 31.6958C35.5031 30.0674 36.5234 26.4356 34.8669 23.6814V23.679Z" fill="#18171D"/>
<path d="M5.94802 32.4789C9.23302 32.4789 11.896 29.882 11.896 26.6787C11.896 23.4753 9.23302 20.8784 5.94802 20.8784C2.66302 20.8784 0 23.4753 0 26.6787C0 29.882 2.66302 32.4789 5.94802 32.4789Z" fill="#18171D"/>
</svg>
