<svg width="32" height="33" viewBox="0 0 32 33" fill="none" xmlns="http://www.w3.org/2000/svg">
<g clip-path="url(#clip0_1890_67389)">
<path d="M32.0012 28.416C32.0044 28.9784 31.875 29.535 31.6215 30.0489C31.3681 30.5629 30.9963 31.0224 30.5309 31.397C30.0655 31.7716 29.5171 32.0527 28.922 32.2218C28.3269 32.3909 27.6988 32.4441 27.0792 32.3778C24.8237 32.0769 23.1709 30.3078 23.2259 28.2532V4.63141C23.1714 2.57462 24.8283 0.804478 27.0867 0.506901C27.7057 0.441577 28.333 0.495464 28.9272 0.665C29.5214 0.834536 30.0689 1.11586 30.5335 1.49035C30.998 1.86485 31.3691 2.32399 31.6221 2.8374C31.8751 3.35082 32.0043 3.90681 32.0012 4.46859V28.416Z" fill="#18171D"/>
<path d="M4.38763 24.5028C6.81087 24.5028 8.77525 26.2736 8.77525 28.4578C8.77525 30.6421 6.81087 32.4128 4.38763 32.4128C1.96438 32.4128 0 30.6421 0 28.4579C0 26.2736 1.96438 24.5028 4.38763 24.5028ZM15.9324 12.5155C13.4978 12.6358 11.6086 14.4767 11.6652 16.6741V27.2978C11.6652 30.181 13.0726 31.9313 15.1346 32.3043C15.7739 32.4211 16.434 32.4082 17.0671 32.2665C17.7001 32.1248 18.2903 31.8579 18.7946 31.485C19.299 31.1122 19.705 30.6429 19.9832 30.111C20.2614 29.5792 20.4047 28.9982 20.4029 28.4103V16.491C20.4039 15.9641 20.2886 15.4423 20.0636 14.956C19.8385 14.4697 19.5083 14.0286 19.0922 13.6586C18.676 13.2885 18.1823 12.9969 17.6398 12.8006C17.0973 12.6044 16.5169 12.5074 15.9324 12.5155Z" fill="#18171D"/>
</g>
<defs>
<clipPath id="clip0_1890_67389">
<rect width="32" height="32" fill="white" transform="translate(0 0.47998)"/>
</clipPath>
</defs>
</svg>
