<svg width="40" height="41" viewBox="0 0 40 41" fill="none" xmlns="http://www.w3.org/2000/svg">
<g style="mix-blend-mode:luminosity" opacity="0.8">
<g clip-path="url(#clip0_1890_67393)">
<path d="M33.4668 9.55091C33.4385 9.37091 33.2587 9.27129 33.11 9.26032C32.014 9.18812 30.9179 9.11649 29.8218 9.04543C29.8218 9.04543 27.6411 7.14742 27.4018 6.93734C27.1623 6.72738 26.6946 6.79124 26.513 6.83809C26.4863 6.84499 26.0366 6.96668 25.2927 7.1685C24.5642 5.33077 23.2786 3.64198 21.017 3.64198C20.9545 3.64198 20.8903 3.6442 20.826 3.6474C20.1828 2.90164 19.386 2.57764 18.6978 2.57764C13.4293 2.57764 10.9122 8.35182 10.123 11.2861C8.07581 11.8422 6.62147 12.2376 6.4357 12.2888C5.29298 12.603 5.25684 12.6346 5.1068 13.5786C4.99388 14.2933 2.00391 34.5654 2.00391 34.5654L25.3024 38.3925L37.9263 35.9982C37.9263 35.9982 33.4946 9.73091 33.4668 9.55091ZM24.005 7.51765L22.0335 8.0526C22.0343 7.93079 22.035 7.81095 22.035 7.6799C22.035 6.53776 21.8541 5.61816 21.564 4.88916C22.7294 5.01738 23.5055 6.17986 24.005 7.51765ZM20.1184 5.11564C20.4424 5.82738 20.653 6.84881 20.653 8.22717C20.653 8.29769 20.6523 8.36217 20.6516 8.42739C19.3695 8.77555 17.9764 9.15355 16.5801 9.53279C17.3641 6.88013 18.8336 5.59892 20.1184 5.11564ZM18.5531 3.81655C18.7805 3.81655 19.0095 3.88424 19.2288 4.01653C17.5403 4.7131 15.7305 6.46749 14.9662 9.97095L11.7478 10.8448C12.643 8.17255 14.7689 3.81655 18.5531 3.81655Z" fill="#18171D"/>
<path d="M33.1112 9.25877C32.0152 9.18657 30.9191 9.11494 29.823 9.04388C29.823 9.04388 27.6423 7.14587 27.403 6.93579C27.3134 6.85762 27.1926 6.81755 27.0663 6.80029L25.3047 38.3907L37.9275 35.9967C37.9275 35.9967 33.4958 9.72936 33.468 9.54936C33.4397 9.36936 33.2598 9.26975 33.1112 9.25877Z" fill="#18171D"/>
<path d="M21.0186 15.3742L19.462 19.4335C19.462 19.4335 18.0982 18.7954 16.4265 18.7954C13.9757 18.7954 13.8523 20.1438 13.8523 20.4836C13.8523 22.3376 19.3648 23.048 19.3648 27.3907C19.3648 30.8073 16.8931 33.0074 13.5603 33.0074C9.56088 33.0074 7.51562 30.8252 7.51562 30.8252L8.58648 27.7233C8.58648 27.7233 10.6888 29.3057 12.4628 29.3057C13.622 29.3057 14.0935 28.5055 14.0935 27.9209C14.0935 25.5025 9.571 25.3946 9.571 21.4207C9.571 18.076 12.3092 14.8394 17.8367 14.8394C19.9664 14.8394 21.0186 15.3742 21.0186 15.3742Z" fill="#F1F3F5"/>
</g>
</g>
<defs>
<clipPath id="clip0_1890_67393">
<rect width="36" height="36" fill="white" transform="translate(2 2.47998)"/>
</clipPath>
</defs>
</svg>
