<svg width="123" height="36" viewBox="0 0 123 36" fill="none" xmlns="http://www.w3.org/2000/svg">
<g clip-path="url(#clip0_2240_23533)">
<path fill-rule="evenodd" clip-rule="evenodd" d="M70.8054 10.06L64.5525 24.3103C64.5272 24.368 64.486 24.4174 64.4335 24.4529C64.3811 24.4884 64.3195 24.5084 64.2561 24.5107C64.1926 24.5129 64.1297 24.4974 64.0748 24.4657C64.0199 24.4341 63.9752 24.3878 63.9458 24.332L54.3344 6.03812L49.2729 8.17928C49.3021 8.24076 50.2778 10.1902 50.3107 10.2517C56.0228 21.1022 44.9678 29.4643 37.1215 26.918C35.9168 26.5219 34.8194 25.8589 33.9128 24.9794C33.7045 24.7769 33.5072 24.5671 33.3208 24.3465C33.2772 24.2979 33.249 24.2377 33.2399 24.1733C33.2308 24.1089 33.2411 24.0433 33.2696 23.9848C33.2938 23.928 33.3338 23.8791 33.3849 23.8439C33.436 23.8087 33.4961 23.7886 33.5584 23.7859C34.1614 23.7461 34.7607 23.681 35.36 23.5978C38.3796 23.1857 41.3228 22.3427 44.098 21.095C46.7512 19.8689 49.832 17.7747 50.1792 14.6425C50.2505 14.1998 50.2431 13.7481 50.1572 13.3079C49.7918 10.7328 47.6173 8.83754 45.3588 7.77058C43.0373 6.65985 40.4383 6.24499 37.8817 6.57702C35.2678 6.96225 32.8216 8.08487 30.8357 9.81046C28.8331 11.5495 27.3441 13.793 26.527 16.3027C25.7341 18.7887 25.8218 21.468 26.7755 23.898C27.4809 25.7751 28.4968 27.6306 30.0646 28.8856C40.7139 37.3381 51.5496 30.6036 56.1068 22.3066C56.1369 22.2571 56.181 22.2174 56.2336 22.1923C56.2862 22.1673 56.345 22.158 56.4028 22.1655C56.461 22.1693 56.5172 22.1879 56.5659 22.2196C56.6146 22.2513 56.6541 22.295 56.6806 22.3464L61.8664 32.195H67.0375L67.0595 32.1263V32.1046L77.8732 7.6259C75.9443 6.32054 73.7671 5.4173 71.4741 4.97115C69.1901 4.55653 66.8461 4.58848 64.5744 5.06519L65.5867 10.0709C67.2047 9.72969 68.8745 9.70512 70.502 9.99854L70.7944 10.06H70.8054ZM31.7896 17.9447C32.304 16.4066 33.2252 15.0329 34.4574 13.9662C35.6389 12.9303 37.0965 12.2523 38.6564 12.0131L38.788 11.995C40.2275 11.8582 41.6773 12.1147 42.9797 12.7365C43.4306 12.9301 43.8544 13.1806 44.2406 13.4815C44.3924 13.6054 44.5253 13.7504 44.6353 13.9119C44.6659 13.9621 44.6821 14.0197 44.6821 14.0783C44.6821 14.137 44.6659 14.1945 44.6353 14.2447C44.4352 14.5254 44.188 14.7701 43.9043 14.9681C43.2357 15.4396 42.5207 15.8431 41.7701 16.1725C39.493 17.1898 37.0791 17.8757 34.6036 18.2087C33.7708 18.3477 32.9255 18.3986 32.0819 18.3606C32.0307 18.3574 31.9809 18.3424 31.9365 18.3169C31.8921 18.2914 31.8542 18.2561 31.8259 18.2137C31.7976 18.1713 31.7795 18.123 31.7732 18.0726C31.7669 18.0221 31.7725 17.9709 31.7896 17.923V17.9447Z" fill="#18171D"/>
<path fill-rule="evenodd" clip-rule="evenodd" d="M15.3978 19.8222L6.60138 3.47779H0.388672L0.432526 3.56459L12.9274 26.9076C12.949 26.9515 12.9603 26.9997 12.9603 27.0486C12.9603 27.0975 12.949 27.1457 12.9274 27.1897L9.41172 35.5843H15.3321L29.0366 3.52843C27.1082 2.2219 24.9308 1.31855 22.6375 0.873677C20.3533 0.46045 18.0095 0.492393 15.7377 0.967714L16.75 5.9734C18.3692 5.63211 20.0403 5.60753 21.669 5.90106L21.9468 5.95893C20.0574 10.263 17.4188 16.4984 16.0082 19.7969C15.9837 19.8558 15.9428 19.9065 15.8902 19.943C15.8375 19.9795 15.7754 20.0004 15.7112 20.003C15.647 20.0057 15.5833 19.9901 15.5278 19.958C15.4722 19.926 15.4271 19.8788 15.3978 19.8222Z" fill="#18171D"/>
<path fill-rule="evenodd" clip-rule="evenodd" d="M103.05 5.79944H108.667V7.40169C109.772 6.87277 110.945 6.49904 112.154 6.29133C113.873 6.00579 115.632 6.0655 117.327 6.4669C119.022 6.8683 120.619 7.60318 122.021 8.62779C122.317 8.83757 122.606 9.06181 122.891 9.28967L119.313 13.4237C119.156 13.2971 118.995 13.1778 118.831 13.062C117.321 11.9366 115.439 11.4148 113.558 11.6004C111.678 11.7861 109.937 12.6655 108.682 14.0639C108.605 14.1543 108.528 14.2447 108.455 14.3388C108.409 14.396 108.384 14.4678 108.386 14.5413L108.327 30.1804C108.327 30.4796 108.276 30.7765 108.178 31.0593H102.981C102.883 30.7752 102.835 30.4769 102.838 30.1768V26.8385C102.839 26.7729 102.82 26.7085 102.784 26.6535C102.748 26.5985 102.696 26.5554 102.635 26.5295C102.574 26.5035 102.507 26.4961 102.441 26.5079C102.376 26.5198 102.316 26.5505 102.268 26.5962C102.202 26.6577 102.14 26.7228 102.071 26.7806C95.7997 32.3288 87.1567 34.2602 80.33 28.5131C78.7878 27.2183 77.7353 25.4026 77.041 23.5291C76.0901 21.0985 76.0025 18.4202 76.7924 15.9338C77.611 13.43 79.1 11.1926 81.1011 9.45966C85.2161 5.91518 90.676 5.08331 95.6169 7.41978C97.8755 8.50482 100.039 10.3783 100.412 12.9499C100.495 13.3903 100.504 13.8413 100.437 14.2845C100.072 17.4167 97.0093 19.5036 94.3561 20.7297C91.5815 21.9795 88.6381 22.8238 85.6181 23.2361C85.0188 23.3193 84.4158 23.3844 83.8092 23.4206C83.7469 23.4243 83.687 23.445 83.636 23.4804C83.585 23.5158 83.5449 23.5646 83.5203 23.6212C83.4956 23.6778 83.4874 23.7402 83.4964 23.8012C83.5055 23.8622 83.5315 23.9195 83.5716 23.9667C83.7616 24.191 83.9626 24.408 84.1709 24.6105C85.0727 25.4897 86.1651 26.1539 87.365 26.5528C92.3973 28.184 101.051 24.5382 102.557 18.6138C102.861 17.3331 103.02 16.0231 103.032 14.7077C103.054 13.8577 103.032 13.0548 103.032 12.2265V5.79944H103.05ZM82.0404 17.5613C82.5582 16.0231 83.4817 14.6496 84.7155 13.5828C85.8979 12.5461 87.3569 11.8681 88.9182 11.6298L89.0498 11.6117C90.4902 11.4709 91.9422 11.7223 93.2488 12.3387C93.7002 12.5397 94.1229 12.7987 94.506 13.109C94.6579 13.2343 94.7908 13.3804 94.9007 13.5431C94.931 13.5927 94.947 13.6496 94.947 13.7076C94.947 13.7656 94.931 13.8225 94.9007 13.8722C94.7006 14.1529 94.4534 14.3976 94.1698 14.5956C93.4995 15.0696 92.7819 15.4743 92.0282 15.8036C89.7513 16.8221 87.3374 17.5091 84.8617 17.8435C84.0263 17.9807 83.1787 18.0316 82.3327 17.9954C82.2813 17.9925 82.2312 17.9775 82.1867 17.9517C82.1423 17.926 82.1046 17.8901 82.0769 17.8471C82.0482 17.8052 82.0296 17.7572 82.0226 17.7071C82.0156 17.6569 82.0204 17.6058 82.0367 17.5577L82.0404 17.5613Z" fill="#18171D"/>
</g>
<defs>
<clipPath id="clip0_2240_23533">
<rect width="122.5" height="35" fill="white" transform="translate(0.388672 0.583984)"/>
</clipPath>
</defs>
</svg>
