<svg width="20" height="20" viewBox="0 0 20 20" fill="none" xmlns="http://www.w3.org/2000/svg">
<path d="M12.4993 12.4075H3.48602C2.48102 12.4075 1.66602 11.5925 1.66602 10.5875V4.32C1.66602 3.315 2.48102 2.5 3.48602 2.5H12.3468C13.351 2.5 14.166 3.315 14.166 4.32V8.33333" stroke="#18171D" stroke-width="1.5" stroke-linecap="round" stroke-linejoin="round"/>
<path d="M9.33424 12.4082L9.65924 14.9999" stroke="#18171D" stroke-width="1.5" stroke-linecap="round" stroke-linejoin="round"/>
<path d="M6.74128 12.4082L6.41628 14.9999" stroke="#18171D" stroke-width="1.5" stroke-linecap="round" stroke-linejoin="round"/>
<path d="M5.5332 14.9999H10.5332" stroke="#18171D" stroke-width="1.5" stroke-linecap="round" stroke-linejoin="round"/>
<path fill-rule="evenodd" clip-rule="evenodd" d="M14.1667 8.3335H16.6667C17.5875 8.3335 18.3333 9.07933 18.3333 10.0002V15.8335C18.3333 16.7543 17.5875 17.5002 16.6667 17.5002H14.1667C13.2458 17.5002 12.5 16.7543 12.5 15.8335V10.0002C12.5 9.07933 13.2458 8.3335 14.1667 8.3335Z" stroke="#18171D" stroke-width="1.5" stroke-linecap="round" stroke-linejoin="round"/>
<path d="M14.791 15.6249H16.041" stroke="#18171D" stroke-width="1.5" stroke-linecap="round" stroke-linejoin="round"/>
</svg>
