<svg width="25" height="25" viewBox="0 0 25 25" fill="none" xmlns="http://www.w3.org/2000/svg">
<path fill-rule="evenodd" clip-rule="evenodd" d="M21.9717 5.89442C21.7427 4.79005 21.0647 3.91887 20.2027 3.61967C18.6437 3.08398 12.3887 3.08398 12.3887 3.08398C12.3887 3.08398 6.13667 3.08398 4.57467 3.61967C3.71567 3.91447 3.03767 4.78565 2.80567 5.89442C2.38867 7.89858 2.38867 12.084 2.38867 12.084C2.38867 12.084 2.38867 16.2694 2.80567 18.2735C3.03467 19.3779 3.71267 20.2491 4.57467 20.5483C6.13667 21.084 12.3887 21.084 12.3887 21.084C12.3887 21.084 18.6437 21.084 20.2027 20.5483C21.0617 20.2535 21.7397 19.3823 21.9717 18.2735C22.3887 16.2694 22.3887 12.084 22.3887 12.084C22.3887 12.084 22.3887 7.89858 21.9717 5.89442Z" fill="#18171D" stroke="#18171D" stroke-width="1.5" stroke-linecap="round" stroke-linejoin="round"/>
<path fill-rule="evenodd" clip-rule="evenodd" d="M10.3926 15.084L15.5886 12.084L10.3926 9.08398V15.084Z" fill="white" stroke="white" stroke-width="1.5" stroke-linecap="round" stroke-linejoin="round"/>
</svg>
