<svg width="22" height="22" viewBox="0 0 22 22" fill="none" xmlns="http://www.w3.org/2000/svg">
<path fill-rule="evenodd" clip-rule="evenodd" d="M6.04617 13.6484L4.53516 6.51562H16.9639C17.6047 6.51562 18.0742 7.11708 17.9187 7.7392L16.5918 13.047C16.39 13.8532 15.7049 14.4457 14.878 14.5284L8.16848 15.1998C7.16836 15.2992 6.25387 14.6308 6.04617 13.6484Z" stroke="#18171D" stroke-width="1.47656" stroke-linecap="round" stroke-linejoin="round"/>
<path d="M4.53612 6.51562L3.89628 3.5625H2.19922" stroke="#18171D" stroke-width="1.47656" stroke-linecap="round" stroke-linejoin="round"/>
<path d="M15.5957 18.5909C15.3969 18.5909 15.2354 18.7523 15.2374 18.9512C15.2374 19.15 15.3988 19.3115 15.5977 19.3115C15.7965 19.3115 15.9579 19.15 15.9579 18.9512C15.957 18.7523 15.7955 18.5909 15.5957 18.5909" stroke="#18171D" stroke-width="1.47656" stroke-linecap="round" stroke-linejoin="round"/>
<path d="M7.31494 18.5909C7.11609 18.5909 6.95466 18.7523 6.95663 18.9512C6.95466 19.151 7.11708 19.3124 7.31592 19.3124C7.51477 19.3124 7.6762 19.151 7.6762 18.9522C7.6762 18.7523 7.51477 18.5909 7.31494 18.5909" stroke="#18171D" stroke-width="1.47656" stroke-linecap="round" stroke-linejoin="round"/>
</svg>
