<svg width="40" height="41" viewBox="0 0 40 41" fill="none" xmlns="http://www.w3.org/2000/svg">
<g opacity="0.8">
<rect x="3.04297" y="3.52295" width="33.9188" height="33.9188" rx="5" fill="#F1F3F5"/>
<path d="M31.9592 3.52307H8.04297C5.29297 3.52307 3.04297 5.77307 3.04297 8.52307V32.4418C3.04297 35.1918 5.29297 37.4418 8.04297 37.4418H31.9617C34.7117 37.4418 36.9617 35.1918 36.9617 32.4418V8.52307C36.9592 5.77307 34.7117 3.52307 31.9592 3.52307ZM31.638 21.6268H27.613V36.1893H21.5905V21.6268H18.578V16.6068H21.5905V13.5943C21.5905 9.49932 23.2905 7.06307 28.128 7.06307H32.1492V12.0818H29.6342C27.7542 12.0818 27.6292 12.7856 27.6292 14.0943L27.613 16.6068H32.1692L31.638 21.6268Z" fill="#18171D"/>
</g>
</svg>
