<svg width="20" height="20" viewBox="0 0 20 20" fill="none" xmlns="http://www.w3.org/2000/svg">
<path d="M14.1674 7.4989V5.83154H12.5" stroke="#18171D" stroke-width="1.5" stroke-linecap="round" stroke-linejoin="round"/>
<path d="M8.33203 7.73734L9.40414 6.66522L11.6668 8.33258L14.1678 5.83154" stroke="#18171D" stroke-width="1.5" stroke-linecap="round" stroke-linejoin="round"/>
<path d="M11.666 11.2508L14.1671 11.2509" stroke="#18171D" stroke-width="1.5" stroke-linecap="round" stroke-linejoin="round"/>
<path d="M11.666 13.7518L14.1671 13.7518" stroke="#18171D" stroke-width="1.5" stroke-linecap="round" stroke-linejoin="round"/>
<path d="M2.49609 11.334V17.003C2.49704 17.7395 3.9891 18.3369 5.83082 18.3369C7.67253 18.3369 9.16459 17.7395 9.16554 17.003V11.334" stroke="#18171D" stroke-width="1.5" stroke-linecap="round" stroke-linejoin="round"/>
<path d="M9.16459 11.3339C9.16459 12.0704 7.67158 12.6678 5.82987 12.6678C3.98815 12.6678 2.49609 12.0704 2.49609 11.3339C2.49609 10.5964 3.99005 10 5.83082 10C7.67158 10 9.16459 10.5974 9.16554 11.3339" stroke="#18171D" stroke-width="1.5" stroke-linecap="round" stroke-linejoin="round"/>
<path d="M2.49609 14.1685C2.49609 14.905 3.98815 15.5023 5.82987 15.5023C7.67158 15.5023 9.16459 14.905 9.16459 14.1685" stroke="#18171D" stroke-width="1.5" stroke-linecap="round" stroke-linejoin="round"/>
<path d="M4.16406 7.49915V4.16443C4.16406 3.24357 4.91057 2.49707 5.83142 2.49707H15.8356C16.7564 2.49707 17.503 3.24357 17.503 4.16443V15.0023C17.503 15.9231 16.7564 16.6696 15.8356 16.6696H11.6672" stroke="#18171D" stroke-width="1.5" stroke-linecap="round" stroke-linejoin="round"/>
</svg>
