<svg width="25" height="25" viewBox="0 0 25 25" fill="none" xmlns="http://www.w3.org/2000/svg">
<rect x="2.38867" y="2.08398" width="20" height="20" rx="5" fill="#18171D"/>
<rect x="5.38867" y="5.08398" width="14" height="14" fill="white"/>
<path d="M20.0599 3.08398H4.71742C4.36502 3.08398 4.02704 3.22398 3.77785 3.47317C3.52866 3.72236 3.38867 4.06033 3.38867 4.41273V19.7552C3.38867 20.1076 3.52866 20.4456 3.77785 20.6948C4.02704 20.944 4.36502 21.084 4.71742 21.084H20.0599C20.4123 21.084 20.7503 20.944 20.9995 20.6948C21.2487 20.4456 21.3887 20.1076 21.3887 19.7552V4.41273C21.3887 4.06033 21.2487 3.72236 20.9995 3.47317C20.7503 3.22398 20.4123 3.08398 20.0599 3.08398ZM8.75367 18.4177H6.04742V9.82148H8.75367V18.4177ZM7.39867 8.63023C7.09169 8.62851 6.79211 8.53588 6.53772 8.36405C6.28334 8.19222 6.08555 7.94888 5.96933 7.66475C5.85311 7.38062 5.82366 7.06843 5.8847 6.76758C5.94573 6.46672 6.09452 6.19069 6.31229 5.97432C6.53005 5.75795 6.80703 5.61093 7.10827 5.55183C7.40951 5.49273 7.72151 5.52418 8.00489 5.64222C8.28827 5.76027 8.53033 5.95961 8.70052 6.21509C8.87072 6.47058 8.96141 6.77075 8.96117 7.07773C8.96407 7.28326 8.92556 7.48726 8.84793 7.67759C8.77031 7.86791 8.65516 8.04066 8.50935 8.18553C8.36354 8.33041 8.19006 8.44445 7.99924 8.52085C7.80842 8.59725 7.60417 8.63445 7.39867 8.63023ZM18.7287 18.4252H16.0237V13.729C16.0237 12.344 15.4349 11.9165 14.6749 11.9165C13.8724 11.9165 13.0849 12.5215 13.0849 13.764V18.4252H10.3787V9.82773H12.9812V11.019H13.0162C13.2774 10.4902 14.1924 9.58648 15.5887 9.58648C17.0987 9.58648 18.7299 10.4827 18.7299 13.1077L18.7287 18.4252Z" fill="#18171D"/>
</svg>
