<svg width="20" height="20" viewBox="0 0 20 20" fill="none" xmlns="http://www.w3.org/2000/svg">
<path d="M3.51628 9.0752V17.4085" stroke="#18171D" stroke-width="1.5" stroke-linecap="round" stroke-linejoin="round"/>
<path d="M16.4831 9.0752V17.4085" stroke="#18171D" stroke-width="1.5" stroke-linecap="round" stroke-linejoin="round"/>
<path d="M11.8518 17.4075V13.7042C11.8518 12.6817 11.0226 11.8525 10.0001 11.8525C8.9776 11.8525 8.14844 12.6817 8.14844 13.7042V17.4075" stroke="#18171D" stroke-width="1.5" stroke-linecap="round" stroke-linejoin="round"/>
<path d="M1.66602 17.4084H18.3327" stroke="#18171D" stroke-width="1.5" stroke-linecap="round" stroke-linejoin="round"/>
<path fill-rule="evenodd" clip-rule="evenodd" d="M3.58512 9.07395C2.17012 9.06395 1.24762 7.66312 1.86096 6.45562L3.29012 3.64145C3.61596 2.99979 4.30096 2.59229 5.05262 2.59229H14.9493C15.701 2.59229 16.386 2.99979 16.7118 3.64145L18.1418 6.45562C18.7551 7.66312 17.8326 9.06395 16.4176 9.07395C15.2368 9.07395 14.2793 8.26729 14.2793 7.27145V7.23145C14.2793 8.24895 13.3218 9.07395 12.141 9.07395C10.9601 9.07395 10.0026 8.24895 10.0026 7.23145C10.0026 8.24895 9.04512 9.07395 7.86429 9.07395C6.68346 9.07395 5.72596 8.24895 5.72596 7.23145V7.27145C5.72346 8.26729 4.76596 9.07395 3.58512 9.07395Z" stroke="#18171D" stroke-width="1.5" stroke-linecap="round" stroke-linejoin="round"/>
</svg>
