<svg width="25" height="25" viewBox="0 0 25 25" fill="none" xmlns="http://www.w3.org/2000/svg">
<path d="M12.3164 6.31689V7.81689" stroke="#495057" stroke-width="1.8" stroke-linecap="round" stroke-linejoin="round"/>
<path d="M18.6803 5.95293C22.1951 9.46765 22.1951 15.1661 18.6803 18.6808C15.1656 22.1956 9.46715 22.1956 5.95245 18.6808C2.43773 15.1661 2.43773 9.46763 5.95245 5.95293C9.46717 2.43821 15.1656 2.43821 18.6803 5.95293" stroke="#495057" stroke-width="1.8" stroke-linecap="round" stroke-linejoin="round"/>
<path d="M12.3164 18.3169V16.8169" stroke="#495057" stroke-width="1.8" stroke-linecap="round" stroke-linejoin="round"/>
<path d="M9.31641 14.5719V14.5719C9.31641 15.8149 10.3234 16.8219 11.5664 16.8219H13.2094C14.3724 16.8219 15.3164 15.8789 15.3164 14.7149V14.7149C15.3164 13.7489 14.6594 12.9069 13.7224 12.6719L10.9104 11.9669C9.97341 11.7319 9.31641 10.8899 9.31641 9.92389V9.92389C9.31641 8.75989 10.2594 7.81689 11.4234 7.81689H13.0664C14.3094 7.81689 15.3164 8.82389 15.3164 10.0669V10.0669" stroke="#495057" stroke-width="1.8" stroke-linecap="round" stroke-linejoin="round"/>
</svg>
