<svg width="46" height="47" viewBox="0 0 46 47" fill="none" xmlns="http://www.w3.org/2000/svg">
<rect y="0.47998" width="46" height="46" rx="8" fill="#FFF3C7"/>
<path d="M20.5 23.48L22.375 25.355L26.125 21.605" stroke="#CC9F00" stroke-width="1.88" stroke-linecap="round" stroke-linejoin="round"/>
<path fill-rule="evenodd" clip-rule="evenodd" d="M12.375 21.9387C12.375 27.4707 15.809 32.4214 20.9904 34.3594L21.0279 34.3735C22.2998 34.8492 23.7009 34.8488 24.9725 34.3722L25.0029 34.3608C30.189 32.4173 33.625 27.4602 33.625 21.922V17.2678C33.625 16.1742 32.9142 15.2075 31.8704 14.8815L23.7454 12.3437C23.26 12.1921 22.74 12.1921 22.2547 12.3437L14.1297 14.8814C13.0858 15.2074 12.375 16.1741 12.375 17.2677V21.9387Z" stroke="#CC9F00" stroke-width="1.88" stroke-linecap="round" stroke-linejoin="round"/>
</svg>
