<svg width="27" height="27" viewBox="0 0 27 27" fill="none" xmlns="http://www.w3.org/2000/svg">
<path d="M15.2308 12.2142C16.2885 13.2718 16.2885 14.9866 15.2308 16.0443C14.1732 17.102 12.4583 17.102 11.4007 16.0443C10.343 14.9866 10.343 13.2718 11.4007 12.2142C12.4583 11.1565 14.1732 11.1565 15.2308 12.2142" stroke="#495057" stroke-width="1.8" stroke-linecap="round" stroke-linejoin="round"/>
<path d="M21.1742 5.71415C22.2319 6.77182 22.2319 8.48664 21.1742 9.54431C20.1165 10.602 18.4017 10.602 17.344 9.54431C16.2864 8.48664 16.2864 6.77182 17.344 5.71415C18.4017 4.65648 20.1165 4.65648 21.1742 5.71415" stroke="#495057" stroke-width="1.8" stroke-linecap="round" stroke-linejoin="round"/>
<path d="M19.8164 13.5874C21.4772 13.5874 23.0664 14.1648 24.1497 15.0315" stroke="#495057" stroke-width="1.8" stroke-linecap="round" stroke-linejoin="round"/>
<path d="M9.28747 5.71415C10.3451 6.77182 10.3451 8.48664 9.28747 9.54431C8.2298 10.602 6.51498 10.602 5.45732 9.54431C4.39964 8.48664 4.39964 6.77182 5.45732 5.71415C6.51499 4.65648 8.2298 4.65648 9.28747 5.71415" stroke="#495057" stroke-width="1.8" stroke-linecap="round" stroke-linejoin="round"/>
<path d="M2.48242 15.0315C3.56576 14.1648 5.15501 13.5874 6.81576 13.5874" stroke="#495057" stroke-width="1.8" stroke-linecap="round" stroke-linejoin="round"/>
<path d="M18.289 23.8792C17.0269 22.9031 16.0229 21.1709 13.3154 21.1709C10.6079 21.1709 9.60388 22.9031 8.3418 23.8792" stroke="#495057" stroke-width="1.8" stroke-linecap="round" stroke-linejoin="round"/>
</svg>
