<svg width="40" height="41" viewBox="0 0 40 41" fill="none" xmlns="http://www.w3.org/2000/svg">
<g opacity="0.8">
<g clip-path="url(#clip0_1890_66972)">
<path d="M4 20.4802C4 27.032 7.93975 32.6605 13.5774 35.1351C13.5324 34.0179 13.5694 32.6766 13.8559 31.461C14.1635 30.1621 15.9146 22.7425 15.9146 22.7425C15.9146 22.7425 15.4035 21.7209 15.4035 20.211C15.4035 17.8399 16.7778 16.069 18.4893 16.069C19.9446 16.069 20.6478 17.1621 20.6478 18.4711C20.6478 19.9341 19.7146 22.1225 19.2347 24.1494C18.8339 25.8466 20.0857 27.231 21.7601 27.231C24.7916 27.231 26.8334 23.3374 26.8334 18.7241C26.8334 15.2174 24.4715 12.5926 20.1756 12.5926C15.3221 12.5926 12.2985 16.2121 12.2985 20.2551C12.2985 21.6491 12.7095 22.6321 13.3532 23.3934C13.6493 23.743 13.6904 23.8836 13.5833 24.2851C13.5065 24.5795 13.3302 25.2882 13.2572 25.5691C13.1508 25.9744 12.8224 26.1192 12.4561 25.9696C10.2206 25.057 9.1795 22.6089 9.1795 19.8569C9.1795 15.3117 13.0127 9.86173 20.6147 9.86173C26.7235 9.86173 30.7441 14.2822 30.7441 19.0274C30.7441 25.304 27.2546 29.9931 22.1109 29.9931C20.3835 29.9931 18.7586 29.0594 18.202 27.9987C18.202 27.9987 17.2731 31.6852 17.0764 32.3971C16.7371 33.6307 16.0731 34.8637 15.466 35.8247C16.9382 36.26 18.4654 36.481 20.0006 36.4809C28.8361 36.4809 36.0001 29.3172 36.0001 20.4802C36.0001 11.6436 28.8361 4.47998 20.0006 4.47998C11.1643 4.47998 4 11.6436 4 20.4802Z" fill="#18171D"/>
</g>
</g>
<defs>
<clipPath id="clip0_1890_66972">
<rect width="32" height="32" fill="white" transform="translate(4 4.47998)"/>
</clipPath>
</defs>
</svg>
