<svg width="40" height="41" viewBox="0 0 40 41" fill="none" xmlns="http://www.w3.org/2000/svg">
<g opacity="0.8">
<g clip-path="url(#clip0_1890_66985)">
<path d="M27.8717 15.3045C30.2542 17.0067 33.173 18.0083 36.3253 18.0083V11.9456C35.7286 11.9457 35.1336 11.8835 34.5499 11.7598V16.5321C31.3979 16.5321 28.4796 15.5307 26.0966 13.8285V26.201C26.0966 32.3903 21.0765 37.4074 14.8844 37.4074C12.574 37.4074 10.4264 36.7093 8.64258 35.5119C10.6786 37.5927 13.518 38.8834 16.6592 38.8834C22.8518 38.8834 27.872 33.8664 27.872 27.6768V15.3045H27.8717ZM30.0619 9.18794C28.8442 7.85843 28.0447 6.14025 27.8717 4.24069V3.46094H26.1894C26.6129 5.87519 28.0575 7.93777 30.0619 9.18794ZM12.5591 30.7625C11.8788 29.8711 11.5111 28.7804 11.5127 27.659C11.5127 24.8283 13.8088 22.5331 16.6417 22.5331C17.1696 22.5328 17.6943 22.6138 18.1975 22.7733V16.575C17.6095 16.4945 17.0161 16.4602 16.423 16.4728V21.2972C15.9195 21.1376 15.3945 21.0567 14.8664 21.0571C12.0337 21.0571 9.73764 23.3521 9.73764 26.1832C9.73764 28.1851 10.8853 29.9182 12.5591 30.7625Z" fill="#18171D"/>
<path d="M26.0948 13.8284C28.4779 15.5305 31.396 16.532 34.5482 16.532V11.7597C32.7887 11.3851 31.2311 10.4662 30.06 9.18794C28.0555 7.93764 26.6112 5.87506 26.1877 3.46094H21.7688V27.6765C21.7587 30.4996 19.4665 32.7854 16.6397 32.7854C14.9741 32.7854 13.4942 31.9919 12.5571 30.7624C10.8835 29.9182 9.73578 28.185 9.73578 26.1834C9.73578 23.3525 12.0318 21.0573 14.8645 21.0573C15.4073 21.0573 15.9304 21.1417 16.4211 21.2973V16.4729C10.3377 16.5986 5.44531 21.5666 5.44531 27.6766C5.44531 30.7268 6.6636 33.4918 8.64097 35.5121C10.4248 36.7093 12.5722 37.4076 14.8828 37.4076C21.075 37.4076 26.0949 32.3902 26.0949 26.201V13.8285L26.0948 13.8284Z" fill="#18171D"/>
<path d="M34.55 11.759V10.4689C32.9633 10.4713 31.408 10.0272 30.0618 9.18733C31.2534 10.4912 32.8225 11.3904 34.55 11.7592V11.759ZM26.1893 3.4602C26.1489 3.22953 26.118 2.99731 26.0964 2.76412V1.98438H19.9949V26.2002C19.9852 29.023 17.6931 31.3088 14.8662 31.3088C14.0648 31.31 13.2743 31.1227 12.5587 30.762C13.4958 31.9913 14.9757 32.7847 16.6414 32.7847C19.468 32.7847 21.7604 30.4991 21.7704 27.676V3.46032H26.1893V3.4602ZM16.4231 16.4722V15.0985C15.9133 15.0288 15.3993 14.994 14.8847 14.9942C8.69184 14.9942 3.67188 20.0115 3.67188 26.2002C3.67188 30.0803 5.64478 33.4999 8.64285 35.5113C6.66548 33.4911 5.4472 30.7259 5.4472 27.6759C5.4472 21.566 10.3395 16.5978 16.4231 16.4722Z" fill="#18171D"/>
</g>
</g>
<defs>
<clipPath id="clip0_1890_66985">
<rect width="32.6543" height="36.9912" fill="white" transform="translate(3.67188 1.98438)"/>
</clipPath>
</defs>
</svg>
