<svg width="23" height="17" viewBox="0 0 23 17" fill="none" xmlns="http://www.w3.org/2000/svg">
<path d="M1.1129 0.693848C0.498264 0.693848 0 1.19131 0 1.80496C0 2.41861 0.498264 2.91607 1.1129 2.91607H21.8871C22.5017 2.91607 23 2.41861 23 1.80496C23 1.19131 22.5017 0.693848 21.8871 0.693848H1.1129Z" fill="#18171D"/>
<path d="M1.48387 7.58274C0.869233 7.58274 0.37097 8.0802 0.37097 8.69385C0.37097 9.3075 0.869233 9.80496 1.48387 9.80496H21.8871C22.5017 9.80496 23 9.3075 23 8.69385C23 8.0802 22.5017 7.58274 21.8871 7.58274H1.48387Z" fill="#18171D"/>
<path d="M1.1129 14.4716C0.498264 14.4716 0 14.9691 0 15.5827C0 16.1964 0.498264 16.6938 1.1129 16.6938H21.8871C22.5017 16.6938 23 16.1964 23 15.5827C23 14.9691 22.5017 14.4716 21.8871 14.4716H1.1129Z" fill="#18171D"/>
</svg>
